<svg id="visual" viewBox="0 0 900 600" width="900" height="600" xmlns="http://www.w3.org/2000/svg" xmlns:xlink="http://www.w3.org/1999/xlink" version="1.1"><rect x="0" y="0" width="900" height="600" fill="#dd3f31"></rect><g transform="translate(379.1215221264496 304.3186201820958)"><path d="M138.5 -262.8C152.1 -232.1 116.6 -139.5 145 -85.4C173.5 -31.3 265.7 -15.6 300.4 20C335.1 55.7 312.2 111.3 267.4 137.2C222.7 163 156.1 159 107.9 187C59.7 215 29.8 275 5.3 265.8C-19.2 256.5 -38.3 178.1 -55.5 132.1C-72.7 86.2 -87.9 72.9 -111.3 56.3C-134.7 39.7 -166.4 19.8 -173.7 -4.2C-181.1 -28.3 -164.1 -56.7 -144.1 -79C-124 -101.4 -100.7 -117.8 -76.2 -142.2C-51.7 -166.5 -25.8 -198.7 18.3 -230.5C62.5 -262.3 125 -293.5 138.5 -262.8" fill="#dd2e1e"></path></g></svg>