<svg id="visual" viewBox="0 0 900 600" width="900" height="600" xmlns="http://www.w3.org/2000/svg" xmlns:xlink="http://www.w3.org/1999/xlink" version="1.1"><rect x="0" y="0" width="900" height="600" fill="#dd3f31"></rect><g transform="translate(412.1346172731013 286.53067233163017)"><path d="M163.1 -250C216.2 -251.9 267.5 -217.9 259.6 -170.3C251.8 -122.7 184.9 -61.3 173.4 -6.7C161.8 48 205.6 96 217.2 150.1C228.8 204.3 208.1 264.5 166.6 275.2C125 285.8 62.5 246.9 5.4 237.5C-51.7 228.2 -103.3 248.3 -118.9 222.6C-134.5 197 -114 125.5 -103.8 80.7C-93.6 36 -93.7 18 -117.6 -13.8C-141.6 -45.7 -189.4 -91.3 -184.3 -109.5C-179.2 -127.7 -121.1 -118.4 -81.5 -124.4C-42 -130.4 -21 -151.7 17 -181.2C55 -210.6 110 -248.2 163.1 -250" fill="#dd2e1e"></path></g></svg>