<svg id="visual" viewBox="0 0 900 300" width="900" height="300" xmlns="http://www.w3.org/2000/svg" xmlns:xlink="http://www.w3.org/1999/xlink" version="1.1"><rect x="0" y="0" width="900" height="300" fill="#202731"></rect><path d="M0 100L21.5 103.5C43 107 86 114 128.8 117.8C171.7 121.7 214.3 122.3 257.2 121.2C300 120 343 117 385.8 114.2C428.7 111.3 471.3 108.7 514.2 104C557 99.3 600 92.7 642.8 91.2C685.7 89.7 728.3 93.3 771.2 94.7C814 96 857 95 878.5 94.5L900 94L900 0L878.5 0C857 0 814 0 771.2 0C728.3 0 685.7 0 642.8 0C600 0 557 0 514.2 0C471.3 0 428.7 0 385.8 0C343 0 300 0 257.2 0C214.3 0 171.7 0 128.8 0C86 0 43 0 21.5 0L0 0Z" fill="#ff6f61"></path><path d="M0 64L21.5 66.3C43 68.7 86 73.3 128.8 77.5C171.7 81.7 214.3 85.3 257.2 85.3C300 85.3 343 81.7 385.8 82.2C428.7 82.7 471.3 87.3 514.2 84.5C557 81.7 600 71.3 642.8 69.8C685.7 68.3 728.3 75.7 771.2 77.7C814 79.7 857 76.3 878.5 74.7L900 73L900 0L878.5 0C857 0 814 0 771.2 0C728.3 0 685.7 0 642.8 0C600 0 557 0 514.2 0C471.3 0 428.7 0 385.8 0C343 0 300 0 257.2 0C214.3 0 171.7 0 128.8 0C86 0 43 0 21.5 0L0 0Z" fill="#f76455"></path><path d="M0 45L21.5 48.3C43 51.7 86 58.3 128.8 61C171.7 63.7 214.3 62.3 257.2 62.7C300 63 343 65 385.8 67C428.7 69 471.3 71 514.2 67.2C557 63.3 600 53.7 642.8 51.8C685.7 50 728.3 56 771.2 57.3C814 58.7 857 55.3 878.5 53.7L900 52L900 0L878.5 0C857 0 814 0 771.2 0C728.3 0 685.7 0 642.8 0C600 0 557 0 514.2 0C471.3 0 428.7 0 385.8 0C343 0 300 0 257.2 0C214.3 0 171.7 0 128.8 0C86 0 43 0 21.5 0L0 0Z" fill="#ee5849"></path><path d="M0 36L21.5 37.5C43 39 86 42 128.8 41.5C171.7 41 214.3 37 257.2 38.2C300 39.3 343 45.7 385.8 48.5C428.7 51.3 471.3 50.7 514.2 51.3C557 52 600 54 642.8 53.5C685.7 53 728.3 50 771.2 47.7C814 45.3 857 43.7 878.5 42.8L900 42L900 0L878.5 0C857 0 814 0 771.2 0C728.3 0 685.7 0 642.8 0C600 0 557 0 514.2 0C471.3 0 428.7 0 385.8 0C343 0 300 0 257.2 0C214.3 0 171.7 0 128.8 0C86 0 43 0 21.5 0L0 0Z" fill="#e64c3d"></path><path d="M0 26L21.5 26.7C43 27.3 86 28.7 128.8 28.3C171.7 28 214.3 26 257.2 23.3C300 20.7 343 17.3 385.8 18.2C428.7 19 471.3 24 514.2 24.5C557 25 600 21 642.8 18.8C685.7 16.7 728.3 16.3 771.2 16.2C814 16 857 16 878.5 16L900 16L900 0L878.5 0C857 0 814 0 771.2 0C728.3 0 685.7 0 642.8 0C600 0 557 0 514.2 0C471.3 0 428.7 0 385.8 0C343 0 300 0 257.2 0C214.3 0 171.7 0 128.8 0C86 0 43 0 21.5 0L0 0Z" fill="#dd3f31"></path></svg>